<?xml version="1.0" standalone="no"?>
<!DOCTYPE svg PUBLIC "-//W3C//DTD SVG 20010904//EN"
 "http://www.w3.org/TR/2001/REC-SVG-20010904/DTD/svg10.dtd">
<svg version="1.0" xmlns="http://www.w3.org/2000/svg"
 width="570.000000pt" height="570.000000pt" viewBox="0 0 570.000000 570.000000"
 preserveAspectRatio="xMidYMid meet">
<metadata>
Created by potrace 1.14, written by Peter Selinger 2001-2017
</metadata>
<g transform="translate(0.000000,570.000000) scale(0.100000,-0.100000)"
fill="#000000" stroke="none">
<path d="M0 5294 l0 -405 100 6 c104 7 116 2 80 -30 -11 -10 -20 -29 -20 -42
0 -19 5 -23 30 -23 17 0 33 7 40 18 8 13 10 6 8 -33 l-3 -50 -117 -3 -118 -3
0 -629 0 -630 23 -1 22 0 -22 -9 c-23 -9 -23 -10 -23 -245 0 -230 0 -235 19
-225 11 5 44 13 73 18 l53 7 6 57 c7 62 21 88 49 88 10 0 23 6 29 14 13 15 -4
26 -39 26 -18 0 -34 25 -25 40 3 5 20 11 38 15 63 13 62 12 64 70 2 37 -2 64
-12 79 -14 21 -14 29 0 82 17 65 27 79 49 71 13 -5 16 -23 16 -84 0 -43 3
-108 7 -145 6 -67 6 -68 35 -68 59 0 93 -41 46 -56 -40 -12 -46 -44 -9 -44 10
0 24 -6 30 -14 16 -19 -3 -32 -62 -40 -31 -5 -45 -11 -41 -18 5 -7 1 -9 -9 -5
-11 4 -20 -1 -27 -13 -9 -16 -8 -18 5 -14 8 4 22 1 30 -6 8 -6 20 -10 27 -8 7
3 19 -1 26 -9 7 -7 32 -13 55 -13 23 0 65 -7 92 -14 47 -13 51 -17 23 -20 -24
-2 -17 -24 20 -64 22 -23 43 -42 47 -42 5 0 17 -8 28 -17 15 -14 36 -18 98
-17 43 1 85 7 93 13 10 9 21 9 42 0 16 -6 135 -15 264 -20 285 -11 588 -30
680 -43 19 -2 73 -7 120 -11 47 -4 94 -9 105 -12 40 -8 285 -26 290 -21 3 3 8
23 11 44 10 71 14 84 30 84 9 0 14 6 12 12 -3 7 8 37 24 65 l29 53 -43 0 c-43
1 -43 1 -17 15 15 8 34 29 42 48 15 32 19 33 62 31 25 -1 45 1 45 6 0 5 18 14
40 20 38 10 39 12 28 33 -7 12 -11 25 -10 30 1 4 -5 7 -13 7 -8 0 -15 4 -15 9
0 5 -17 9 -37 8 -66 -1 -208 14 -217 23 -13 12 -11 118 3 177 14 55 32 79 55
70 8 -3 19 5 27 21 22 42 34 53 48 39 16 -16 13 1 -6 34 -17 28 -16 29 5 49
12 12 22 30 22 41 0 13 5 19 13 16 13 -5 44 49 39 66 -4 13 18 48 27 43 4 -3
21 17 37 44 16 27 35 50 42 50 6 0 12 9 12 19 0 10 7 22 16 25 9 3 14 13 11
21 -13 34 48 108 100 121 12 4 21 10 18 14 -9 15 83 28 128 19 50 -11 100 -30
107 -40 3 -4 22 -19 43 -33 35 -24 37 -24 37 -5 0 19 1 19 30 -3 35 -26 38
-38 9 -38 -11 0 -17 -5 -14 -10 4 -6 10 -8 15 -5 4 3 6 -3 3 -13 -2 -11 3 -25
14 -33 17 -13 17 -13 4 4 -18 23 -7 34 13 14 9 -9 15 -26 14 -39 0 -13 4 -42
11 -66 7 -23 9 -48 5 -54 -5 -7 -3 -8 6 -3 10 6 12 3 8 -12 -5 -20 21 -116 36
-130 14 -14 5 -24 -11 -12 -15 12 -16 12 -8 -1 4 -8 15 -23 23 -32 8 -10 12
-24 9 -32 -3 -8 1 -20 8 -26 11 -9 12 -17 4 -32 -10 -19 -18 -20 -78 -15 -36
3 -60 3 -53 0 17 -7 5 -23 -19 -23 -10 0 -19 -4 -19 -10 0 -5 -5 -10 -11 -10
-6 0 -23 -8 -37 -19 -15 -10 -37 -22 -50 -26 -39 -12 -92 -48 -153 -103 l-58
-54 5 -71 c2 -40 15 -103 28 -142 13 -38 29 -89 35 -112 7 -24 20 -51 31 -61
11 -10 25 -42 33 -70 7 -29 17 -52 22 -52 5 1 12 -7 16 -17 4 -10 5 5 2 32
l-6 50 22 -20 c35 -30 43 -52 31 -76 -7 -12 -18 -18 -26 -15 -18 7 -44 -3 -45
-18 -1 -23 -66 -101 -89 -106 -23 -6 -23 -6 11 -26 25 -15 38 -32 47 -63 11
-34 18 -43 43 -48 36 -7 37 -16 3 -42 -39 -31 -134 -28 -134 4 0 7 7 16 16 19
8 3 12 2 9 -4 -8 -13 1 -13 26 0 23 13 24 31 4 70 -13 25 -20 29 -54 27 -31
-2 -37 1 -33 13 5 13 4 13 -14 0 -10 -8 -34 -28 -52 -45 -18 -16 -42 -33 -55
-36 -12 -3 -21 -11 -19 -18 2 -8 -3 -9 -16 -2 -14 7 -21 5 -30 -9 -6 -11 -18
-17 -26 -14 -21 8 -40 -32 -46 -100 l-5 -60 -27 30 c-15 16 -41 44 -58 62 -17
18 -35 30 -40 27 -6 -3 -10 -1 -10 4 0 6 7 11 15 11 17 0 19 9 5 30 -5 8 -12
11 -16 7 -8 -8 -44 21 -44 36 0 5 -7 15 -16 21 -12 9 -14 21 -9 46 10 55 28
70 106 90 184 48 93 65 -433 85 -76 2 -138 1 -138 -4 0 -13 -83 -20 -340 -31
-129 -5 -289 -13 -355 -17 -66 -4 -153 -6 -194 -5 -121 5 -615 -19 -628 -30
-16 -13 -17 -54 -2 -64 7 -4 89 -6 184 -5 113 1 175 -2 180 -8 3 -6 3 -11 -2
-11 -29 0 -498 -20 -590 -26 l-113 -6 0 -948 0 -948 29 -12 c20 -8 55 -9 122
-3 88 8 93 9 99 33 3 14 12 25 20 26 42 3 41 2 36 87 -3 45 -8 224 -11 397 -4
174 -8 354 -10 400 -10 254 -8 354 7 364 27 16 68 -18 68 -57 0 -23 3 -28 9
-18 14 23 44 -6 36 -33 -11 -34 -13 -120 -4 -137 8 -15 14 -61 59 -399 30
-235 40 -633 14 -607 -3 3 -7 18 -9 34 -2 15 -8 64 -14 108 -20 151 -34 280
-40 380 l-6 100 -8 -80 c-5 -44 -8 -90 -9 -102 0 -13 -4 -21 -8 -18 -12 8 -20
-22 -19 -73 l1 -47 14 34 c8 18 18 30 21 27 14 -14 2 -91 -17 -108 -17 -16
-19 -33 -19 -143 1 -94 4 -127 14 -132 7 -5 49 -6 92 -3 l78 5 -3 32 c-6 61
27 211 60 276 29 57 32 70 33 157 0 79 5 105 26 156 l26 61 -30 59 c-28 56
-29 61 -22 147 4 61 3 98 -5 118 -12 29 -24 36 -34 21 -2 -4 -33 -9 -69 -10
l-65 -3 -7 76 c-4 41 -11 78 -16 80 -14 9 2 35 32 51 23 12 37 12 69 4 34 -9
40 -15 41 -38 4 -69 18 -130 32 -139 5 -3 8 -2 5 3 -3 5 0 69 8 143 7 74 10
147 7 163 -4 20 2 43 20 76 14 26 42 88 62 137 58 141 73 158 180 209 68 33
76 35 260 46 168 10 404 37 635 71 71 10 75 10 89 -10 7 -12 22 -21 31 -21 10
0 26 -3 35 -6 13 -5 14 -9 4 -15 -17 -10 -11 -15 30 -24 23 -5 31 -4 27 4 -5
7 -1 8 10 4 13 -5 7 -11 -27 -27 -36 -17 -40 -22 -22 -24 12 -2 35 4 52 12 27
15 32 14 62 -2 59 -31 63 -39 35 -67 -30 -30 -24 -32 14 -5 l28 20 31 -62 c17
-34 36 -65 42 -68 5 -4 12 -19 15 -33 2 -15 9 -39 16 -54 6 -16 11 -31 10 -35
-3 -12 54 -155 72 -179 29 -41 17 3 -19 75 -20 38 -33 71 -31 73 2 3 19 -3 36
-12 28 -14 32 -21 28 -50 -2 -19 -1 -33 2 -32 3 1 15 -4 27 -11 23 -13 37 -7
129 49 17 10 52 22 76 25 40 6 49 3 79 -24 29 -26 34 -37 34 -75 0 -31 -7 -55
-21 -74 -19 -25 -27 -28 -75 -27 -57 1 -214 22 -239 31 -8 3 -26 7 -40 9 -51
6 -115 28 -127 43 -11 14 -12 13 -13 -8 0 -23 -2 -23 -61 -17 -76 9 -108 21
-116 43 -3 10 -15 26 -27 36 -12 10 -14 15 -6 11 13 -7 13 -5 1 9 -26 32 -31
17 -11 -35 11 -28 17 -61 15 -72 -3 -12 -7 -34 -9 -49 -3 -15 -16 -41 -30 -58
-14 -17 -26 -43 -26 -58 0 -38 -16 -50 -61 -44 -34 5 -39 3 -39 -15 0 -17 75
-92 91 -92 3 0 3 19 1 42 -6 59 6 64 124 57 54 -4 132 -7 172 -8 l72 -1 0 35
c0 26 6 39 26 51 23 16 27 16 41 1 15 -14 19 -51 11 -86 -3 -15 142 -81 215
-97 10 -2 45 -18 79 -34 33 -17 66 -30 73 -30 7 0 25 -7 41 -14 15 -8 30 -13
34 -11 3 2 19 -7 36 -20 28 -23 28 -25 14 -51 -17 -31 -89 -54 -155 -49 l-39
2 29 -23 c17 -13 46 -29 65 -35 49 -16 60 -27 60 -60 0 -20 -6 -30 -22 -35
-41 -13 -75 -45 -87 -82 -15 -45 -1 -189 23 -247 15 -36 18 -37 54 -32 20 3
91 11 157 18 66 6 126 17 133 22 24 19 -11 129 -59 191 -11 14 -19 33 -16 40
10 27 142 47 267 42 63 -2 118 -5 123 -5 4 -1 7 -7 7 -15 0 -17 -53 -146 -82
-201 -19 -35 -20 -38 -3 -25 10 8 36 53 57 100 49 107 56 113 116 95 25 -8 57
-12 69 -9 13 4 31 3 40 -1 10 -4 56 -8 102 -10 82 -4 84 -5 130 -47 27 -24 54
-60 61 -80 13 -37 32 -49 45 -28 3 6 1 10 -4 10 -6 0 -11 5 -11 11 0 6 6 7 13
2 6 -4 3 6 -7 22 -11 17 -25 34 -33 38 -7 4 -13 19 -13 32 0 13 -16 42 -35 65
-19 23 -35 47 -35 54 0 13 -87 92 -135 121 -16 10 -36 25 -43 34 -6 8 -18 16
-25 17 -25 4 -64 23 -80 38 -13 13 -14 22 -5 47 6 16 8 32 6 35 -3 2 -10 -14
-17 -36 -10 -34 -16 -40 -39 -40 -15 0 -37 11 -49 23 -18 20 -20 27 -10 44 7
11 26 44 44 74 18 30 56 101 85 159 40 78 59 105 72 103 13 -1 16 4 13 19 -3
11 6 36 23 61 107 158 167 385 139 518 -6 27 -27 73 -46 102 -34 50 -35 51 -7
26 49 -44 91 -69 115 -69 12 0 32 -8 43 -19 22 -19 103 -50 146 -55 14 -2 51
-15 83 -30 69 -31 67 -31 67 -7 0 11 4 22 9 25 16 10 41 -30 57 -90 19 -74 35
-92 84 -92 46 -1 54 8 52 57 -1 19 5 45 13 58 14 21 14 22 -23 28 -60 11 -100
25 -105 39 -3 7 -29 21 -59 31 -60 19 -78 31 -78 52 0 23 48 65 73 62 12 -1
34 1 50 6 17 4 33 3 41 -4 20 -17 66 3 66 28 0 11 4 21 9 23 4 2 11 147 15
323 8 375 7 359 30 384 15 17 17 36 15 140 -2 67 -7 121 -11 121 -4 0 -7 53
-7 118 0 64 -2 136 -4 159 -6 58 -9 57 166 37 26 -3 47 -10 47 -14 0 -11 -104
-18 -108 -8 -2 4 -8 8 -13 8 -13 0 -11 -28 3 -32 7 -3 8 -9 2 -19 -5 -8 -10
-34 -11 -59 -1 -25 -4 -73 -6 -107 -3 -40 0 -64 7 -66 8 -3 7 -11 -1 -26 -9
-13 -13 -61 -13 -133 0 -102 2 -114 20 -125 12 -8 19 -23 19 -40 -1 -16 -1
-134 -1 -263 1 -129 -3 -254 -7 -277 -5 -26 -5 -43 1 -43 5 0 8 -10 6 -22 -2
-15 -13 -26 -33 -32 -16 -6 -31 -11 -33 -12 -1 0 0 -8 4 -17 9 -24 92 7 96 36
4 27 55 37 64 13 9 -22 24 -20 24 4 0 25 44 38 66 19 13 -11 18 -10 26 5 8 15
18 17 59 11 41 -6 49 -4 49 9 0 26 31 34 125 31 69 -2 111 3 180 21 50 13 106
26 125 28 81 10 126 18 145 26 11 4 38 13 60 19 77 22 80 28 80 154 1 276 16
925 26 1052 5 77 12 254 14 393 2 139 7 257 10 263 14 21 -7 49 -44 59 -21 5
-148 13 -282 16 -134 2 -354 11 -489 18 -135 7 -250 11 -256 9 -7 -3 -13 -48
-16 -120 -6 -119 -11 -133 -51 -133 -13 0 -17 5 -13 18 3 9 8 68 11 131 l7
114 -34 -6 c-32 -5 -170 1 -543 23 -99 6 -266 13 -372 15 -106 2 -197 6 -203
10 -5 3 -10 3 -10 -1 0 -3 -6 -1 -14 5 -7 6 -35 14 -62 17 -27 3 -56 8 -64 11
-8 2 -35 6 -60 8 -25 2 -88 8 -140 14 -79 10 -318 32 -485 45 -22 2 -59 7 -81
11 -32 6 -48 3 -70 -11 -15 -11 -31 -18 -34 -18 -3 1 -15 -2 -28 -7 -13 -5
-25 -9 -28 -9 -2 0 -25 -15 -51 -34 -77 -54 -128 -72 -183 -67 -26 3 -100 3
-865 -3 -412 -3 -762 -3 -776 0 -15 3 -32 16 -37 27 -13 27 -12 76 -12 -426 1
-213 4 -397 9 -410 5 -12 5 -31 1 -42 -3 -11 -7 -66 -8 -123 -2 -100 -2 -103
22 -113 13 -7 22 -17 20 -23 -7 -19 -67 -10 -85 13 -22 27 -31 27 -24 -2 7
-26 -29 -105 -52 -114 -7 -3 -19 0 -27 6 -18 15 -67 -6 -64 -28 2 -10 -8 -17
-29 -22 -40 -8 -43 8 -11 54 25 35 25 65 0 83 -11 8 -12 13 -3 18 6 4 18 3 25
-3 9 -8 21 -2 45 23 26 27 41 34 72 34 21 1 43 4 49 7 7 4 8 46 5 113 -5 98
-14 744 -15 1007 l0 111 -34 -4 c-19 -2 -51 1 -72 8 l-37 13 5 378 5 379 -58
0 -59 0 0 -406z m240 -435 c0 -10 -4 -19 -9 -19 -12 0 -23 29 -15 41 8 14 24
0 24 -22z m4330 -469 c0 -5 -7 -10 -15 -10 -8 0 -15 5 -15 10 0 6 7 10 15 10
8 0 15 -4 15 -10z m-2640 -184 c0 -2 -8 -10 -17 -17 -16 -13 -17 -12 -4 4 13
16 21 21 21 13z m2606 -51 c7 -18 74 -21 92 -3 8 8 15 8 26 -2 9 -7 26 -10 38
-7 13 4 30 2 38 -3 12 -8 12 -10 -3 -16 -10 -3 -29 -4 -43 -1 -36 6 -44 -20
-13 -44 20 -15 21 -19 7 -19 -26 0 -22 -20 5 -22 12 0 29 -1 37 -2 24 -2 17
-21 -9 -24 -13 -2 -21 1 -17 6 6 10 -81 30 -131 31 -22 0 -38 -7 -47 -21 -13
-18 -18 -19 -31 -8 -19 16 -19 30 -1 30 19 0 28 27 20 66 -6 34 0 54 17 54 5
0 12 -7 15 -15z m-140 -39 c-10 -39 -23 -31 -18 10 3 24 8 32 14 26 6 -6 8
-22 4 -36z m-1441 14 c3 -5 -1 -10 -9 -10 -9 0 -16 5 -16 10 0 6 4 10 9 10 6
0 13 -4 16 -10z m1866 3 c0 -5 2 -16 4 -25 4 -23 -10 -31 -41 -24 -16 4 -24
13 -24 27 0 17 3 19 14 10 10 -9 15 -8 20 4 6 15 25 21 27 8z m-2576 -60 c-9
-15 -13 -19 -10 -8 4 11 10 29 13 40 3 11 7 14 9 8 3 -7 -3 -24 -12 -40z
m2744 38 c28 -18 -1 -31 -70 -31 -46 0 -68 4 -64 10 4 7 24 8 49 5 34 -6 44
-4 49 9 7 18 16 20 36 7z m-90 -77 c9 -8 -95 -2 -114 6 -13 6 3 7 45 3 36 -3
67 -7 69 -9z m-549 -63 c-1 -13 -4 -12 -15 3 -8 11 -15 27 -15 35 1 13 4 12
15 -3 8 -11 15 -27 15 -35z m-2469 6 c-10 -9 -11 -8 -5 6 3 10 9 15 12 12 3
-3 0 -11 -7 -18z m12 -45 c-14 -34 -28 -61 -29 -59 -5 4 24 84 38 107 22 35
18 14 -9 -48z m107 43 c-7 -9 -15 -13 -18 -10 -3 2 1 11 8 20 7 9 15 13 18 10
3 -2 -1 -11 -8 -20z m2627 3 c-3 -8 -6 -5 -6 6 -1 11 2 17 5 13 3 -3 4 -12 1
-19z m-2560 -51 c-12 -26 -25 -47 -30 -47 -4 0 4 23 19 51 32 63 41 61 11 -4z
m-214 -2 c-3 -9 -8 -14 -10 -11 -3 3 -2 9 2 15 9 16 15 13 8 -4z m117 -5 c-1
-3 -7 -16 -15 -30 -10 -18 -14 -20 -15 -8 0 9 -2 23 -5 30 -4 9 2 14 15 14 11
0 20 -3 20 -6z m2426 -37 c-7 -17 -8 -17 -17 0 -12 21 -2 44 13 29 6 -6 8 -19
4 -29z m-2567 -32 c-16 -54 -24 -46 -9 9 6 23 14 40 16 37 3 -3 0 -24 -7 -46z
m2636 18 c-11 -17 -34 -10 -32 10 1 16 5 18 19 10 10 -6 16 -14 13 -20z m214
16 c6 -7 -10 -25 -22 -25 -7 0 -23 10 -37 21 l-25 20 40 -6 c22 -4 42 -8 44
-10z m-2759 -35 c-8 -5 -17 -7 -19 -4 -3 3 1 9 9 14 8 5 17 7 19 4 3 -3 -1 -9
-9 -14z m110 16 c0 -2 -7 -6 -15 -10 -8 -3 -15 -1 -15 4 0 6 7 10 15 10 8 0
15 -2 15 -4z m-20 -30 c0 -3 -4 -8 -10 -11 -5 -3 -10 -1 -10 4 0 6 5 11 10 11
6 0 10 -2 10 -4z m-1798 -338 c-9 -9 -15 -9 -24 0 -9 9 -7 12 12 12 19 0 21
-3 12 -12z m2998 -143 c13 -16 14 -16 -45 -31 l-30 -8 33 -4 c50 -5 22 -32
-33 -32 -23 0 -64 -7 -90 -15 -55 -16 -72 -11 -37 12 12 9 22 21 22 29 0 7 9
18 20 24 15 8 113 35 141 39 4 1 12 -6 19 -14z m217 -72 c31 -57 29 -130 -7
-253 -17 -57 -35 -107 -41 -111 -6 -3 -11 -30 -12 -59 -2 -33 -7 -55 -15 -58
-8 -2 -10 -8 -4 -15 5 -7 12 -29 15 -49 5 -31 3 -36 -11 -31 -15 5 -14 4 1 -8
14 -11 19 -31 21 -82 2 -53 -8 -133 -20 -155 -1 -1 -13 2 -28 7 -17 7 -26 18
-26 32 0 40 -34 57 -100 53 -33 -3 -69 0 -80 6 -14 8 -20 8 -20 0 0 -7 -12 -4
-30 7 -35 20 -35 19 -15 67 15 34 14 40 -5 79 -40 83 -94 159 -109 154 -3 -1
-19 8 -35 20 -21 17 -27 28 -23 45 3 12 -3 46 -13 77 -23 64 -25 98 -8 103 7
3 13 20 14 38 1 19 10 39 20 47 26 19 36 16 24 -7 -12 -22 4 -29 17 -7 4 8 22
22 40 32 31 18 33 18 53 0 15 -14 20 -15 21 -4 0 10 2 11 6 2 7 -20 47 -15 77
8 33 26 62 21 59 -9 -2 -12 2 -22 8 -22 8 0 7 -5 -1 -15 -11 -13 -10 -14 4 -9
9 3 16 1 16 -5 0 -8 4 -9 13 -1 6 5 24 19 39 30 15 11 28 30 30 43 2 14 11 23
25 25 12 2 32 16 45 33 13 16 26 29 29 29 3 0 15 -17 26 -37z m-1024 -160 c-7
-2 -21 -2 -30 0 -10 3 -4 5 12 5 17 0 24 -2 18 -5z m-1713 -172 c0 -5 -9 -7
-20 -4 -11 3 -20 7 -20 9 0 2 9 4 20 4 11 0 20 -4 20 -9z m1415 -406 c-26 -10
-166 -32 -158 -25 4 5 33 13 63 18 55 10 114 14 95 7z m1230 -95 c3 -6 -1 -7
-9 -4 -18 7 -21 14 -7 14 6 0 13 -4 16 -10z m-58 -53 c10 -11 17 -44 14 -74
-1 -7 -13 -13 -27 -13 -14 0 -23 -4 -20 -9 3 -4 -6 -13 -19 -19 -20 -9 -26 -8
-34 5 -8 14 -12 15 -25 4 -14 -12 -16 -11 -17 5 -1 11 -1 24 0 31 2 13 -38 9
-48 -4 -25 -34 -131 -70 -225 -77 -38 -3 -72 -10 -77 -17 -4 -6 -16 -10 -26
-7 -21 6 -43 -19 -43 -48 0 -19 -31 -16 -92 10 -43 18 -47 37 -18 66 25 25 28
25 32 -2 3 -18 6 -15 12 14 9 42 1 39 176 63 63 9 138 24 165 33 28 9 67 17
87 18 21 0 43 6 51 12 7 7 23 13 35 15 12 2 25 7 29 11 9 9 54 -2 70 -17z
m-2857 -74 c0 -35 -14 -60 -24 -44 -9 15 3 71 15 71 5 0 9 -12 9 -27z m2774
-58 c3 -8 1 -15 -3 -15 -5 0 -11 7 -15 15 -3 8 -1 15 3 15 5 0 11 -7 15 -15z
m79 -25 c-3 -11 -9 -20 -14 -20 -14 0 -11 28 4 33 6 3 13 6 14 6 0 1 -1 -8 -4
-19z m-30 -62 c-7 -43 -16 -51 -42 -43 -23 7 -29 45 -7 45 7 0 19 7 26 15 20
24 30 17 23 -17z m-76 -58 c-1 -8 -12 -19 -25 -25 -12 -5 -22 -15 -22 -21 0
-6 -12 -10 -26 -8 -15 1 -28 -3 -31 -12 -7 -19 -23 -18 -23 1 0 18 -21 20 -39
3 -10 -11 -15 -10 -25 5 -18 24 -26 21 -26 -8 0 -24 -3 -27 -32 -29 -7 -1 -16
-5 -20 -11 -5 -6 -8 -5 -8 3 0 7 -13 12 -30 12 -32 0 -33 1 -24 24 5 12 10 13
25 5 16 -8 19 -6 19 9 0 27 26 46 66 49 19 1 42 9 51 18 11 12 26 15 49 11 22
-5 37 -2 46 7 11 12 17 12 45 -2 19 -9 32 -23 30 -31z m-380 8 c-3 -8 -6 -5
-6 6 -1 11 2 17 5 13 3 -3 4 -12 1 -19z m-2449 -40 c-5 -14 -102 -28 -120 -17
-24 15 7 29 63 29 44 0 60 -3 57 -12z m3271 -175 c-1 -53 -6 -49 -11 10 -2 20
0 37 4 37 4 0 8 -21 7 -47z m-3091 -22 c3 -37 1 -42 -15 -39 -19 3 -30 46 -19
75 11 28 31 7 34 -36z m-38 -483 c0 -56 -2 -99 -4 -97 -7 6 -14 188 -8 194 11
11 12 3 12 -97z m3417 -460 c-3 -8 -6 -5 -6 6 -1 11 2 17 5 13 3 -3 4 -12 1
-19z"/>
<path d="M4533 4118 c-8 -13 -3 -15 55 -20 52 -5 59 -2 44 17 -9 12 -91 15
-99 3z"/>
<path d="M2665 5688 c-3 -7 -2 -84 2 -170 l8 -158 -45 -6 c-79 -11 -232 -43
-325 -68 -49 -13 -127 -27 -173 -31 -46 -3 -109 -13 -140 -21 -66 -17 -184
-73 -227 -109 -29 -24 -29 -24 -10 -45 14 -16 16 -23 7 -32 -19 -19 -14 -28
17 -28 38 0 68 -27 49 -45 -39 -37 -70 -38 -723 -42 -683 -3 -785 -7 -785 -27
0 -11 35 -12 163 -8 409 12 608 15 959 16 207 1 374 4 372 8 -8 13 16 18 262
54 150 22 255 42 265 50 9 8 40 21 70 28 50 13 56 13 84 -4 28 -18 42 -18 185
-10 165 10 348 27 359 34 3 2 6 42 5 88 0 45 -1 185 -2 311 l-2 227 -185 0
c-139 0 -187 -3 -190 -12z m-315 -470 c11 -18 20 -41 20 -50 0 -19 -52 -46
-107 -55 -28 -5 -33 -2 -38 20 -8 32 11 94 33 107 36 20 71 12 92 -22z m-152
-1 c18 -14 14 -68 -6 -93 -9 -12 -35 -27 -57 -34 -22 -7 -62 -24 -89 -37 -43
-22 -58 -24 -110 -19 -115 13 -141 29 -116 76 13 24 105 84 155 100 78 26 194
30 223 7z m108 -127 c34 -13 24 -23 -39 -40 -61 -16 -81 -2 -41 29 30 24 41
25 80 11z"/>
<path d="M4110 5694 c0 -3 8 -18 19 -32 28 -41 76 -140 101 -212 37 -103 45
-109 47 -31 2 88 12 111 54 125 28 9 34 16 34 39 -1 32 3 32 48 11 33 -16 67
-54 47 -54 -5 0 -10 -5 -10 -11 0 -8 4 -8 13 -2 24 18 65 0 79 -36 10 -25 11
-25 18 -6 8 19 9 19 9 -2 1 -14 7 -23 16 -23 12 0 13 -5 7 -17 -5 -10 -6 -29
-1 -43 l7 -25 2 25 c2 21 3 22 7 5 3 -11 9 -25 14 -32 7 -8 0 -11 -26 -10 -19
1 -35 5 -35 10 0 5 -11 2 -25 -7 -18 -12 -49 -16 -125 -16 -88 0 -100 -2 -101
-17 0 -11 -3 -13 -6 -5 -7 18 -24 15 -21 -4 2 -13 -21 -23 -107 -49 -134 -39
-171 -55 -258 -111 -37 -24 -69 -44 -71 -44 -2 0 -24 -11 -47 -25 l-44 -26 95
3 c90 3 98 5 135 34 22 17 50 35 63 39 l23 7 -22 -26 c-12 -14 -26 -26 -31
-26 -5 0 -18 -8 -29 -19 -20 -18 -19 -18 22 -18 36 0 48 6 84 41 145 141 163
153 277 180 80 19 113 20 174 4 42 -11 45 -15 39 -38 -11 -47 -10 -54 8 -58
12 -2 21 6 30 27 l13 31 29 -30 c16 -16 37 -30 47 -30 24 0 62 -40 95 -102 14
-26 31 -48 36 -48 6 0 8 3 4 6 -7 7 21 104 35 122 7 8 7 12 -1 12 -6 0 -11 7
-11 15 0 8 6 15 14 15 8 0 17 4 20 9 14 22 -9 38 -77 55 -39 10 -83 24 -97 31
l-25 13 37 7 c39 7 41 12 53 78 4 28 11 37 25 37 11 0 20 7 20 15 0 8 7 15 15
15 8 0 15 9 15 19 0 11 4 22 8 25 12 7 2 170 -11 178 -14 9 -757 11 -757 2z
m450 -43 c5 -11 10 -36 10 -55 0 -33 2 -36 30 -36 17 0 30 -4 30 -10 0 -5 -32
-9 -74 -8 -73 1 -75 2 -60 22 8 11 14 31 14 44 0 27 17 62 30 62 5 0 14 -9 20
-19z m175 -101 c14 -6 4 -8 -32 -7 -28 1 -46 5 -40 9 15 10 47 9 72 -2z m-124
-33 c-1 -12 -15 -9 -19 4 -3 6 1 10 8 8 6 -3 11 -8 11 -12z m209 -47 c0 -5 -5
-10 -11 -10 -5 0 -7 5 -4 10 3 6 8 10 11 10 2 0 4 -4 4 -10z m-170 -30 c0 -5
-7 -10 -15 -10 -8 0 -15 5 -15 10 0 6 7 10 15 10 8 0 15 -4 15 -10z m58 -32
c-2 -6 -10 -14 -16 -16 -7 -2 -10 2 -6 12 7 18 28 22 22 4z m-41 -4 c-3 -3
-12 -4 -19 -1 -8 3 -5 6 6 6 11 1 17 -2 13 -5z m-227 -76 c0 -4 -18 -8 -41 -8
-23 0 -38 4 -34 10 7 11 75 10 75 -2z m190 -54 c0 -3 -7 -12 -15 -20 -16 -17
-18 -14 -9 10 6 15 24 23 24 10z"/>
<path d="M5503 5679 c-49 -24 -75 -50 -56 -56 9 -3 11 -21 7 -62 -4 -36 -2
-66 5 -79 9 -17 9 -22 -1 -22 -33 0 36 -39 88 -50 32 -7 79 -20 103 -31 24
-10 45 -19 47 -19 2 0 4 77 4 170 l0 170 -77 0 c-59 0 -88 -5 -120 -21z"/>
<path d="M4490 5484 c0 -8 5 -12 10 -9 6 3 10 10 10 16 0 5 -4 9 -10 9 -5 0
-10 -7 -10 -16z"/>
<path d="M4520 5430 c0 -5 5 -10 11 -10 5 0 7 5 4 10 -3 6 -8 10 -11 10 -2 0
-4 -4 -4 -10z"/>
<path d="M4471 5421 c-8 -6 -9 -11 -3 -15 6 -3 14 -1 17 5 9 14 2 20 -14 10z"/>
<path d="M4766 5035 c4 -8 10 -12 15 -9 11 6 2 24 -11 24 -5 0 -7 -7 -4 -15z"/>
<path d="M2695 5022 c-52 -4 -307 -42 -388 -58 -42 -7 -87 -14 -99 -14 -11 0
-26 -7 -33 -16 -14 -20 -21 -21 -205 -24 l-145 -3 155 -8 c256 -12 393 -5 472
23 37 14 71 27 75 31 10 11 73 8 73 -3 0 -5 16 -10 35 -10 28 0 35 4 33 16 -2
9 4 20 12 24 24 12 85 30 103 30 9 0 18 4 21 8 5 8 -44 10 -109 4z m-58 -48
c-3 -3 -12 -4 -19 -1 -8 3 -5 6 6 6 11 1 17 -2 13 -5z"/>
<path d="M5270 5001 c0 -6 5 -11 12 -11 6 0 2 -10 -9 -22 -12 -13 -31 -44 -43
-70 -12 -25 -30 -54 -41 -64 -10 -9 -19 -25 -19 -35 0 -18 9 -22 70 -34 19 -4
59 -18 88 -32 72 -34 177 -41 211 -14 21 16 26 30 29 83 l4 64 -33 11 c-91 31
-168 67 -157 74 8 5 2 12 -17 19 -16 6 -32 15 -35 20 -9 14 -60 24 -60 11z"/>
<path d="M5555 4979 c58 -12 114 -11 95 1 -8 5 -42 9 -75 9 -58 -1 -59 -2 -20
-10z"/>
<path d="M3005 4963 c-111 -7 -111 -48 0 -44 66 2 139 26 129 43 -3 4 -20 7
-37 6 -18 -1 -59 -3 -92 -5z"/>
<path d="M320 4820 c0 -16 5 -30 10 -30 6 0 10 14 10 30 0 17 -4 30 -10 30 -5
0 -10 -13 -10 -30z"/>
<path d="M2335 3460 c-3 -5 -2 -10 4 -10 5 0 13 5 16 10 3 6 2 10 -4 10 -5 0
-13 -4 -16 -10z"/>
<path d="M137 2602 l-137 -3 0 -32 0 -32 142 3 c147 4 161 8 156 46 -4 23 8
22 -161 18z"/>
<path d="M2700 2602 c0 -12 24 -22 52 -22 11 0 18 5 16 13 -5 14 -68 23 -68 9z"/>
<path d="M4458 2293 c-7 -13 -2 -52 9 -76 6 -12 14 -35 19 -52 12 -37 32 -41
259 -50 183 -8 457 13 518 40 17 7 15 10 -13 36 -17 16 -25 29 -18 29 7 1 -4
7 -24 14 -20 7 -81 14 -135 14 -125 2 -242 10 -255 18 -5 3 -80 10 -166 14
-86 5 -164 11 -173 15 -10 3 -19 3 -21 -2z"/>
<path d="M1710 2165 c1 -6 7 -21 16 -35 l15 -25 -7 25 c-7 26 -24 52 -24 35z"/>
<path d="M4065 2160 c-3 -5 -1 -10 4 -10 6 0 11 5 11 10 0 6 -2 10 -4 10 -3 0
-8 -4 -11 -10z"/>
<path d="M4108 2081 c-22 -12 -37 -13 -90 -4 -68 11 -93 3 -83 -27 10 -31 -5
-50 -32 -44 -23 6 -24 5 -19 -27 3 -19 8 -56 11 -84 9 -75 12 -80 57 -110 64
-43 208 -72 232 -48 3 4 14 8 23 9 9 2 20 10 25 19 5 8 13 13 19 10 22 -14 7
26 -16 41 -20 13 -24 24 -23 55 2 53 -14 67 -83 75 -66 7 -82 20 -77 61 2 22
9 29 31 31 18 2 29 -2 33 -12 7 -19 50 -21 56 -3 3 6 -5 26 -16 42 -20 29 -22
30 -48 16z"/>
<path d="M1450 2087 c0 -4 12 -26 28 -49 46 -69 52 -82 46 -103 -4 -15 -3 -16
4 -6 14 20 32 -17 36 -74 3 -47 -3 -55 -24 -30 -7 8 -16 15 -21 15 -4 0 2 -10
15 -23 13 -13 25 -29 28 -37 4 -12 9 -12 36 -1 18 7 32 17 32 22 0 21 -86 171
-131 229 -27 35 -49 60 -49 57z"/>
<path d="M4615 2066 c-143 -6 -266 -15 -273 -20 -8 -4 -12 -16 -9 -27 6 -24
-27 -53 -53 -46 -25 6 -25 2 0 -30 21 -27 28 -107 11 -118 -5 -3 -7 -30 -4
-60 4 -39 2 -55 -6 -55 -8 0 -10 -8 -6 -20 9 -27 -19 -70 -46 -70 -29 0 -31
-18 -11 -80 12 -40 22 -54 34 -52 23 4 32 -28 11 -43 -15 -11 -15 -18 -4 -70
14 -62 40 -92 97 -112 32 -11 35 -10 50 12 23 35 7 111 -23 108 -17 -2 -25 8
-41 50 -27 69 -39 112 -47 169 -7 57 -3 67 28 61 19 -4 26 -15 36 -54 7 -28
16 -47 20 -44 5 6 7 25 11 137 1 31 22 51 47 46 22 -4 53 32 53 61 0 20 -4 21
-49 15 -53 -7 -65 3 -50 44 9 23 32 36 82 47 36 7 30 29 -9 30 -22 0 -30 5
-32 23 -2 12 1 22 7 22 6 0 11 -4 11 -10 0 -5 7 -10 15 -10 8 0 15 5 15 11 0
8 4 8 13 2 6 -5 23 -10 36 -11 13 0 34 -11 47 -23 42 -40 65 -47 103 -31 35
14 81 9 81 -8 0 -13 87 -13 95 0 4 6 15 6 32 -1 19 -7 44 -5 90 6 35 9 73 13
84 10 11 -4 34 -1 50 5 24 10 33 10 53 -3 13 -9 32 -16 42 -17 157 -10 198
-10 207 -1 8 8 7 11 -4 13 -54 5 -69 8 -114 21 -48 13 -50 15 -57 57 -4 24
-13 47 -19 50 -18 11 -203 30 -277 28 -37 -1 -184 -6 -327 -12z m255 -52 c11
-13 10 -19 -8 -36 -17 -18 -23 -19 -36 -8 -19 15 -21 46 -3 53 22 9 34 7 47
-9z"/>
<path d="M1697 2028 c3 -13 20 -55 38 -95 18 -39 31 -74 28 -77 -7 -7 17 -30
40 -39 29 -11 39 2 22 26 -8 12 -15 29 -15 37 0 9 -15 32 -33 52 -18 20 -42
55 -52 77 -19 44 -37 55 -28 19z"/>
<path d="M1390 1931 c0 -5 25 -39 56 -77 59 -72 81 -110 71 -120 -6 -7 -42 24
-42 36 0 4 -24 35 -54 69 -52 59 -106 99 -119 87 -3 -3 -1 -6 5 -6 11 0 153
-164 153 -178 0 -5 11 -14 24 -22 21 -11 27 -10 41 3 14 15 14 20 1 44 -7 15
-28 44 -45 63 -18 19 -37 44 -43 55 -10 18 -10 19 6 6 9 -8 19 -11 23 -8 3 4
-8 14 -26 24 -17 10 -31 21 -31 26 0 4 -4 7 -10 7 -5 0 -10 -4 -10 -9z"/>
<path d="M1530 1896 c0 -2 7 -9 15 -16 13 -11 14 -10 9 4 -5 14 -24 23 -24 12z"/>
<path d="M1480 1860 c0 -5 5 -10 11 -10 5 0 7 5 4 10 -3 6 -8 10 -11 10 -2 0
-4 -4 -4 -10z"/>
<path d="M1375 1689 c-4 -6 -5 -11 -4 -13 81 -52 81 -51 93 -145 1 -14 8 -27
15 -29 12 -4 8 26 -10 76 -5 13 -6 34 -3 46 4 19 -1 26 -30 40 -20 9 -36 21
-36 26 0 13 -17 13 -25 -1z"/>
<path d="M3600 1691 c0 -6 5 -13 10 -16 6 -3 10 1 10 9 0 9 -4 16 -10 16 -5 0
-10 -4 -10 -9z"/>
<path d="M3611 1634 c0 -11 3 -14 6 -6 3 7 2 16 -1 19 -3 4 -6 -2 -5 -13z"/>
<path d="M4386 1505 c3 -27 10 -57 15 -65 14 -25 9 41 -7 80 l-14 35 6 -50z"/>
<path d="M362 1480 c0 -14 2 -19 5 -12 2 6 2 18 0 25 -3 6 -5 1 -5 -13z"/>
<path d="M1436 1445 c-3 -8 -1 -15 4 -15 6 0 10 7 10 15 0 8 -2 15 -4 15 -2 0
-6 -7 -10 -15z"/>
<path d="M2176 1413 c-2 -10 -6 -45 -8 -78 l-3 -60 42 1 c35 0 48 7 83 43 53
53 50 72 -15 87 -28 6 -60 14 -72 18 -16 5 -23 2 -27 -11z"/>
<path d="M371 1390 c-1 -19 6 -57 13 -85 l14 -50 1 60 c0 35 -6 71 -14 85
l-14 25 0 -35z"/>
<path d="M1370 1339 c-50 -42 -88 -60 -230 -108 -177 -60 -265 -105 -321 -162
-66 -68 -135 -219 -81 -178 9 7 7 2 -5 -12 -24 -26 -32 -92 -13 -104 6 -3 10
-17 10 -31 0 -13 4 -24 10 -24 5 0 7 7 4 15 -4 9 3 19 20 26 17 8 26 20 26 36
0 12 5 23 10 23 6 0 10 -18 10 -41 0 -22 -4 -38 -9 -35 -5 3 -14 -1 -21 -9
-10 -12 -10 -21 -1 -41 15 -33 15 -33 -11 -44 -16 -7 10 -9 89 -7 62 2 116 7
120 10 3 4 -1 15 -10 25 -18 19 -21 88 -8 147 4 17 4 48 0 69 -4 25 -2 54 7
79 8 22 14 49 14 61 0 28 56 92 93 105 27 10 28 10 22 -11 -5 -19 -4 -20 5 -6
5 9 25 20 43 24 48 10 98 35 138 69 20 16 55 43 77 59 33 23 62 67 62 92 0 10
-19 0 -50 -27z m-618 -421 c-8 -8 -9 -4 -5 13 4 13 8 18 11 10 2 -7 -1 -18 -6
-23z m38 -18 c0 -5 -5 -10 -11 -10 -5 0 -7 5 -4 10 3 6 8 10 11 10 2 0 4 -4 4
-10z"/>
<path d="M4464 1245 c-3 -8 -3 -19 1 -25 11 -18 25 -11 25 15 0 27 -17 34 -26
10z"/>
<path d="M3953 1184 c-9 -23 23 -118 47 -139 23 -21 26 -35 6 -35 -9 0 -12 -7
-9 -21 4 -15 0 -22 -16 -26 -39 -10 -16 -33 33 -33 12 0 31 -7 43 -15 31 -22
138 -31 159 -15 8 8 41 15 72 16 31 1 59 2 61 3 2 1 -4 12 -13 26 -9 13 -16
39 -17 57 -2 60 -13 83 -39 83 -14 1 -28 -3 -31 -8 -10 -14 -42 0 -33 14 11
18 -16 28 -49 18 -16 -5 -33 -6 -38 -3 -4 2 -13 -5 -19 -16 -14 -26 -34 -26
-27 1 4 15 1 19 -11 17 -13 -3 -17 -14 -16 -41 1 -20 -2 -37 -6 -37 -4 0 -19
32 -34 72 -19 54 -23 74 -15 85 9 10 6 13 -15 13 -15 0 -29 -7 -33 -16z m174
-180 c-3 -3 -12 -4 -19 -1 -8 3 -5 6 6 6 11 1 17 -2 13 -5z m-67 -36 c0 -16
-3 -19 -11 -11 -6 6 -8 16 -5 22 11 17 16 13 16 -11z m130 6 c0 -9 -7 -14 -17
-12 -25 5 -28 28 -4 28 12 0 21 -6 21 -16z m-50 -11 c-1 -42 -40 -54 -54 -16
-9 22 2 33 30 33 16 0 24 -6 24 -17z m100 -4 c0 -5 -4 -9 -10 -9 -5 0 -10 7
-10 16 0 8 5 12 10 9 6 -3 10 -10 10 -16z"/>
<path d="M4020 1163 c0 -12 5 -25 10 -28 13 -8 13 15 0 35 -8 12 -10 11 -10
-7z"/>
<path d="M4245 1130 c3 -5 11 -10 16 -10 6 0 7 5 4 10 -3 6 -11 10 -16 10 -6
0 -7 -4 -4 -10z"/>
<path d="M2090 830 c-11 -8 -7 -9 15 -4 37 8 45 14 19 14 -10 0 -26 -5 -34
-10z"/>
<path d="M4370 804 c-14 -7 -42 -18 -62 -24 -22 -6 -38 -17 -38 -25 0 -8 -4
-15 -10 -15 -5 0 -10 -25 -10 -55 0 -54 1 -56 31 -62 28 -5 30 -9 25 -36 -3
-16 -6 -56 -6 -88 0 -46 -3 -59 -15 -59 -8 0 -15 -6 -15 -14 0 -27 -22 -28
-49 -2 -33 32 -41 33 -41 3 0 -29 -18 -47 -46 -47 -33 0 -45 23 -44 87 1 70
-11 131 -39 196 -12 27 -21 55 -21 62 0 20 -18 28 -46 21 -36 -9 -30 -43 16
-85 46 -42 49 -60 18 -102 -20 -26 -21 -33 -10 -61 16 -42 8 -48 -13 -9 -8 17
-23 31 -33 31 -24 -1 -131 -49 -109 -50 9 0 16 -3 16 -7 -1 -5 0 -17 1 -28 1
-15 4 -11 11 11 11 37 50 51 73 25 17 -20 4 -61 -19 -61 -11 0 -15 -7 -13 -20
4 -27 -15 -27 -29 1 -13 25 -17 19 -26 -35 l-5 -28 52 6 c28 4 65 14 83 23 24
13 39 15 59 8 18 -6 59 -7 111 -1 106 12 115 5 78 -58 -15 -25 -31 -46 -36
-46 -5 0 -9 -9 -9 -19 0 -24 -30 -35 -70 -26 -23 5 -31 2 -40 -14 -8 -16 -21
-21 -50 -21 -23 0 -40 -5 -40 -11 0 -12 -11 -10 -100 15 -46 13 -64 14 -107 4
-52 -12 -53 -13 -53 -50 l0 -38 -50 0 c-27 0 -50 4 -50 8 0 12 -46 32 -72 32
-31 0 -86 65 -80 96 7 38 106 84 182 84 64 0 77 9 59 41 -10 20 -16 21 -74 15
-58 -6 -64 -4 -86 19 -27 28 -83 34 -114 12 -15 -12 -18 -27 -17 -95 3 -128
-33 -190 -100 -171 -24 6 -28 4 -28 -12 0 -11 5 -17 10 -14 6 3 10 1 10 -5 0
-7 -7 -9 -16 -6 -8 3 -27 3 -41 0 -22 -6 -24 -9 -11 -18 22 -17 30 -46 13 -46
-21 0 -48 46 -40 69 4 14 0 23 -15 31 -22 12 -27 1 -7 -19 10 -11 9 -13 -3 -9
-8 2 -17 15 -20 29 -8 32 -33 35 -68 9 -35 -26 -65 -20 -88 15 -29 44 25 92
74 66 18 -9 20 -6 25 46 3 31 1 65 -4 75 -10 18 -49 26 -49 9 0 -35 -100 3
-119 46 -14 30 2 53 49 73 33 14 64 77 48 97 -13 17 -62 29 -176 44 l-93 12
-29 -28 c-35 -33 -60 -83 -60 -119 0 -15 -4 -34 -10 -44 -5 -9 -16 -34 -25
-54 -22 -49 -57 -70 -130 -77 -43 -5 -59 -10 -57 -20 3 -13 -25 -40 -41 -41
-4 0 -20 12 -35 27 -31 32 -38 32 -262 20 -178 -10 -258 -30 -204 -51 16 -6
16 -29 -1 -98 -4 -15 -4 -35 -1 -44 6 -14 9 -15 29 -1 29 19 74 25 280 39 117
8 171 8 179 0 10 -10 14 -79 5 -88 -2 -2 -56 -8 -120 -13 -115 -9 -137 -14
-137 -32 0 -8 2873 -7 2908 1 30 8 1 25 -37 22 -30 -2 -51 4 -80 24 -52 34
-55 47 -19 69 26 15 45 17 129 12 83 -5 106 -11 154 -36 l56 -30 21 24 c11 13
34 27 50 30 20 5 28 12 26 23 -2 10 -8 17 -13 17 -52 2 -115 44 -115 75 0 13
-6 16 -26 12 -15 -3 -23 -10 -20 -17 11 -30 -37 -45 -77 -23 -12 6 -50 13 -84
14 -48 3 -66 0 -79 -13 -15 -16 -17 -16 -30 2 -19 25 -18 31 7 48 13 10 34 13
59 10 38 -5 110 12 110 27 0 12 -47 21 -75 14 -37 -9 -152 42 -170 75 -12 24
-18 26 -89 26 -54 0 -79 4 -85 13 -6 10 -11 6 -19 -16 -5 -16 -30 -51 -55 -77
-41 -43 -46 -45 -52 -26 -9 28 -21 26 -29 -4 -5 -19 -13 -25 -32 -25 -25 0
-26 1 -22 69 l3 70 -30 -6 c-16 -3 -38 -10 -48 -15 -25 -13 -31 -5 -23 34 4
22 20 45 47 68 66 56 71 62 63 79 -4 9 -9 28 -12 44 -5 33 -22 46 -22 18 0
-12 -3 -21 -7 -21 -12 0 -33 51 -27 64 3 6 -2 2 -10 -8 -16 -19 -16 -19 -16 3
0 22 3 23 50 19 l50 -5 6 35 c9 47 -5 66 -52 72 -21 3 -44 9 -49 12 -6 3 -21
0 -35 -8z m-7 -84 c15 -17 15 -21 3 -26 -21 -8 -36 4 -36 27 0 25 11 24 33 -1z
m36 -377 c12 -23 -4 -53 -29 -53 -13 0 -20 7 -20 19 0 48 29 68 49 34z m-1548
-95 c3 -53 -10 -78 -29 -55 -14 16 -19 98 -7 116 14 23 33 -10 36 -61z m1249
-98 c0 -5 -9 -10 -19 -10 -11 0 -23 5 -26 10 -4 6 5 10 19 10 14 0 26 -4 26
-10z m140 6 c0 -11 -19 -15 -25 -6 -3 5 1 10 9 10 9 0 16 -2 16 -4z m-1601
-24 c17 -32 -1 -75 -35 -84 -35 -10 -84 8 -85 31 -4 53 13 71 67 71 32 0 46
-5 53 -18z m1456 -12 c3 -5 1 -10 -4 -10 -6 0 -11 5 -11 10 0 6 2 10 4 10 3 0
8 -4 11 -10z m-893 -52 c-7 -7 -12 -8 -12 -2 0 14 12 26 19 19 2 -3 -1 -11 -7
-17z m1033 -18 c3 -5 2 -10 -4 -10 -5 0 -13 5 -16 10 -3 6 -2 10 4 10 5 0 13
-4 16 -10z m-95 -30 c0 -5 -7 -7 -15 -4 -8 4 -15 8 -15 10 0 2 7 4 15 4 8 0
15 -4 15 -10z"/>
<path d="M4220 776 c0 -9 30 -14 35 -6 4 6 -3 10 -14 10 -12 0 -21 -2 -21 -4z"/>
<path d="M4093 763 c-27 -5 -31 -23 -5 -23 10 0 23 -5 28 -10 15 -15 44 -1 44
21 0 19 -15 22 -67 12z"/>
<path d="M3214 376 c-3 -8 2 -28 10 -45 9 -16 16 -41 16 -56 0 -20 5 -25 23
-25 33 0 55 28 63 79 8 51 -1 61 -64 61 -28 0 -45 -5 -48 -14z"/>
<path d="M27 203 c-9 -44 8 -48 31 -9 l21 36 -23 0 c-18 0 -25 -7 -29 -27z"/>
<path d="M1586 200 l-49 -17 22 -22 c11 -11 32 -21 46 -21 20 0 25 6 31 35 3
20 5 37 3 39 -2 2 -26 -5 -53 -14z"/>
<path d="M3640 150 c0 -5 5 -10 11 -10 5 0 7 5 4 10 -3 6 -8 10 -11 10 -2 0
-4 -4 -4 -10z"/>
<path d="M1813 98 c-6 -7 -13 -25 -17 -40 -5 -21 -2 -30 13 -38 16 -8 25 -5
45 15 26 26 51 32 59 15 3 -6 4 -5 3 2 -1 6 -15 16 -32 21 -16 5 -36 16 -45
24 -13 11 -18 11 -26 1z"/>
<path d="M55 71 c-3 -6 4 -9 15 -8 11 1 20 5 20 9 0 11 -28 10 -35 -1z"/>
<path d="M5260 41 c0 -11 -6 -22 -12 -24 -7 -3 -4 -6 7 -6 29 -1 49 15 42 33
-9 22 -37 20 -37 -3z"/>
<path d="M1526 43 c-14 -15 -5 -43 14 -43 13 0 20 7 20 19 0 19 -23 35 -34 24z"/>
<path d="M1948 18 c2 -10 13 -18 23 -18 26 0 24 13 -5 26 -20 9 -23 9 -18 -8z"/>
<path d="M5160 25 c0 -9 44 -23 54 -17 5 3 1 9 -10 13 -23 9 -44 11 -44 4z"/>
<path d="M2040 10 c-13 -8 -13 -10 2 -10 9 0 20 5 23 10 8 13 -5 13 -25 0z"/>
<path d="M2110 10 c0 -5 4 -10 9 -10 6 0 13 5 16 10 3 6 -1 10 -9 10 -9 0 -16
-4 -16 -10z"/>
</g>
</svg>
